<?xml version="1.0" encoding="utf-8"?>
<!-- Generator: Adobe Illustrator 25.0.1, SVG Export Plug-In . SVG Version: 6.00 Build 0)  -->
<svg version="1.1" id="Layer_1" xmlns="http://www.w3.org/2000/svg" xmlns:xlink="http://www.w3.org/1999/xlink" x="0px" y="0px"
	 viewBox="0 0 100 100" style="enable-background:new 0 0 100 100;" xml:space="preserve">
<style type="text/css">
	.st0{fill:#00CC99;}
</style>
<g>
	<path class="st0" d="M79.7,1H20.3c-3.6,0-6.5,2.9-6.5,6.5v0c0,3.6,2.9,6.5,6.5,6.5h59.3c3.6,0,6.5-2.9,6.5-6.5v0
		C86.2,3.9,83.3,1,79.7,1z"/>
	<path class="st0" d="M50,67.7c-2.2,0-4.4-0.2-6.5-0.6c-2.2-0.4-4.3-1.1-6.3-1.9c-2.1-0.8-4.1-1.9-5.9-3.1c-1.9-1.3-3.7-2.7-5.4-4.4
		c-1.3-1.3-1.3-3.3,0-4.6c1.3-1.3,3.3-1.3,4.6,0c10.8,10.8,28.4,10.8,39.2,0c1.3-1.3,3.3-1.3,4.6,0c1.3,1.3,1.3,3.3,0,4.6
		c-1.6,1.6-3.4,3.1-5.4,4.4c-1.9,1.2-3.9,2.3-5.9,3.1c-2,0.8-4.2,1.5-6.3,1.9C54.4,67.5,52.2,67.7,50,67.7z"/>
	<path class="st0" d="M50,83.8c-3.1,0-6.2-0.3-9.2-0.9c-3-0.6-6-1.5-8.9-2.6c-2.9-1.2-5.7-2.7-8.4-4.4c-2.7-1.8-5.2-3.9-7.5-6.2
		c-1.3-1.3-1.3-3.3,0-4.6c1.3-1.3,3.3-1.3,4.6,0c16.2,16.2,42.6,16.2,58.8,0c1.3-1.3,3.3-1.3,4.6,0c1.3,1.3,1.3,3.3,0,4.6
		c-2.3,2.3-4.8,4.4-7.5,6.2c-2.6,1.7-5.4,3.2-8.4,4.4c-2.9,1.2-5.9,2.1-8.9,2.6C56.2,83.5,53.1,83.8,50,83.8z"/>
	<path class="st0" d="M50,99c-4,0-7.9-0.4-11.8-1.1c-3.9-0.8-7.8-1.9-11.5-3.4c-3.8-1.5-7.4-3.4-10.8-5.7c-3.5-2.3-6.7-5-9.7-7.9
		c-1.3-1.3-1.3-3.3,0-4.6c1.3-1.3,3.3-1.3,4.6,0C21.3,86.8,35.2,92.6,50,92.6s28.7-5.8,39.2-16.3c1.3-1.3,3.3-1.3,4.6,0
		c1.3,1.3,1.3,3.3,0,4.6c-3,3-6.2,5.6-9.7,7.9c-3.4,2.2-7,4.1-10.8,5.7c-3.7,1.5-7.6,2.6-11.5,3.4C57.9,98.7,54,99,50,99z"/>
	<path class="st0" d="M18.3,14L18.3,14c0,8.9,4.3,16.8,11,21.8c0.1-2.6,0.6-5.2,1.6-7.6c0.5-1.2,1.2-2.4,1.9-3.5
		c0.7-1.1,1.6-2.1,2.5-3.1c0.9-0.9,2-1.8,3.1-2.5c1.1-0.7,2.3-1.4,3.5-1.9c2.6-1.1,5.3-1.6,8.1-1.6s5.5,0.5,8.1,1.6
		c1.2,0.5,2.4,1.2,3.5,1.9c1.1,0.7,2.1,1.6,3.1,2.5c0.9,0.9,1.8,2,2.5,3.1c0.7,1.1,1.4,2.3,1.9,3.5c1,2.4,1.6,5,1.6,7.6
		c6.7-4.9,11-12.8,11-21.8v0H18.3z"/>
	<path class="st0" d="M50,18.4c-9.9,0-17.9,8-17.9,17.9c0,0.5,0,0.9,0.1,1.4c0.7,9.2,8.4,16.5,17.8,16.5s17.1-7.3,17.8-16.5
		c0-0.5,0.1-0.9,0.1-1.4C67.9,26.4,59.9,18.4,50,18.4z"/>
</g>
</svg>
